<svg width="393" height="852" viewBox="0 0 393 852" fill="none" xmlns="http://www.w3.org/2000/svg">
<rect width="393" height="852" fill="#1E1E1E"/>
<rect width="393" height="852" rx="15" fill="#FFB800" fill-opacity="0.92"/>
<path d="M40.88 383.696C40.88 379.131 42.864 375.547 46.832 372.944C50.8 370.341 55.3653 369.04 60.528 369.04C67.1413 369.04 72.944 370.939 77.936 374.736C80.4107 376.656 82.3307 379.216 83.696 382.416C85.0613 385.573 85.744 389.072 85.744 392.912C85.744 400.464 83.5893 406.608 79.28 411.344C74.8 416.165 69.1893 418.576 62.448 418.576C60.9547 418.576 59.376 418.384 57.712 418C56.048 417.616 54.7253 417.104 53.744 416.464C52.1653 417.659 50.1387 418.256 47.664 418.256C45.232 418.256 43.3333 417.573 41.968 416.208C40.6027 414.843 39.92 413.093 39.92 410.96C39.92 405.925 43.7387 401.637 51.376 398.096C51.5893 396.304 51.888 393.893 52.272 390.864C52.6987 387.792 53.0187 385.317 53.232 383.44C53.488 381.563 53.6587 380.325 53.744 379.728C55.4933 378.619 57.52 378.064 59.824 378.064C60.8907 378.064 61.9147 378.171 62.896 378.384L58.864 405.712C58.48 408.144 57.9467 410.171 57.264 411.792C58.5867 412.133 59.6533 412.304 60.464 412.304C65.3707 412.304 69.168 410.448 71.856 406.736C74.6293 402.853 76.016 398.16 76.016 392.656C76.016 385.616 73.4773 380.56 68.4 377.488C65.584 375.781 62.4907 374.928 59.12 374.928C54.8107 374.928 51.3973 376.101 48.88 378.448C47.4293 379.771 46.704 381.371 46.704 383.248C46.704 384.229 47.0027 385.168 47.6 386.064C48.1973 386.917 49.2427 387.408 50.736 387.536L50.096 391.696C46.9813 391.525 44.656 390.672 43.12 389.136C41.6267 387.557 40.88 385.744 40.88 383.696ZM44.656 410.128C44.656 411.664 45.3813 412.432 46.832 412.432C47.4293 412.432 48.048 412.048 48.688 411.28C49.3707 410.469 49.84 409.211 50.096 407.504L50.672 403.536C46.6613 405.797 44.656 407.995 44.656 410.128ZM104.505 387.216C108.43 387.216 111.694 388.475 114.297 390.992C116.942 393.509 118.265 396.581 118.265 400.208C118.265 405.712 116.644 410.128 113.401 413.456C110.201 416.741 106.318 418.384 101.753 418.384C97.1877 418.384 93.561 417.083 90.873 414.48C88.2277 411.877 86.905 408.656 86.905 404.816C86.905 399.44 88.5477 395.173 91.833 392.016C95.161 388.816 99.385 387.216 104.505 387.216ZM103.225 392.4C101.22 392.4 99.5343 393.552 98.169 395.856C96.8037 398.16 96.057 401.061 95.929 404.56C95.929 407.035 96.4197 409.083 97.401 410.704C98.425 412.325 99.961 413.136 102.009 413.136C104.057 413.136 105.764 412.005 107.129 409.744C108.537 407.483 109.241 404.901 109.241 402C109.241 399.099 108.75 396.795 107.769 395.088C106.788 393.296 105.273 392.4 103.225 392.4ZM135.451 373.456C135.451 373.712 134.875 378.299 133.723 387.216H143.131V392.144H133.083L132.891 393.744C137.883 397.925 140.379 402.491 140.379 407.44C140.379 411.323 139.376 414.117 137.371 415.824C135.408 417.531 133.04 418.384 130.267 418.384C127.494 418.384 125.467 417.659 124.187 416.208C122.907 414.715 122.267 412.923 122.267 410.832C122.267 410.363 122.31 409.851 122.395 409.296L124.379 392.272L124.123 392.144H118.939C118.896 391.717 118.875 391.035 118.875 390.096C118.875 389.115 119.067 388.155 119.451 387.216H124.955L127.003 369.808C127.899 369.467 129.094 369.296 130.587 369.296C133.83 369.296 135.451 370.683 135.451 373.456ZM136.091 407.376C136.091 404.432 134.811 401.531 132.251 398.672C131.483 405.029 131.099 408.699 131.099 409.68C131.099 411.6 131.718 412.56 132.955 412.56C133.851 412.56 134.598 412.155 135.195 411.344C135.792 410.491 136.091 409.168 136.091 407.376ZM157.626 383.376C157.626 379.323 159.418 375.973 163.002 373.328C166.586 370.64 171.322 369.296 177.21 369.296C180.324 369.296 183.119 369.616 185.594 370.256C188.068 370.853 190.031 371.621 191.482 372.56C192.932 373.499 194.148 374.587 195.13 375.824C196.751 377.957 197.54 380.347 197.498 382.992C197.498 385.595 196.474 387.92 194.426 389.968C192.378 392.016 189.903 393.083 187.002 393.168C190.628 393.424 193.764 394.619 196.41 396.752C199.098 398.885 200.442 401.573 200.442 404.816C200.442 409.083 198.799 412.411 195.514 414.8C192.228 417.189 188.218 418.384 183.482 418.384C178.788 418.384 175.588 417.765 173.882 416.528L175.866 411.152C177.743 412.133 179.919 412.624 182.394 412.624C184.911 412.624 186.959 411.899 188.538 410.448C190.116 408.955 190.906 406.992 190.906 404.56C190.906 402.128 189.818 400.08 187.642 398.416C185.508 396.752 182.586 395.92 178.874 395.92L179.45 391.184C182.01 391.184 184.164 390.587 185.914 389.392C187.706 388.155 188.623 386.32 188.666 383.888C188.751 381.456 187.663 379.408 185.402 377.744C182.97 375.995 179.642 375.12 175.418 375.12C172.644 375.12 169.935 375.845 167.29 377.296C164.644 378.704 163.322 380.603 163.322 382.992C163.322 384.144 163.791 385.125 164.73 385.936C165.668 386.704 166.906 387.173 168.442 387.344L167.738 392.08C164.495 391.952 161.999 391.035 160.25 389.328C158.5 387.621 157.626 385.637 157.626 383.376ZM175.93 405.712C175.247 410.277 173.924 413.52 171.962 415.44C169.999 417.317 167.695 418.256 165.05 418.256C162.404 418.256 160.399 417.573 159.034 416.208C157.668 414.843 156.986 413.093 156.986 410.96C156.986 405.925 160.804 401.637 168.442 398.096C168.655 396.304 168.954 393.893 169.338 390.864C169.764 387.792 170.084 385.317 170.298 383.44C170.554 381.563 170.724 380.325 170.81 379.728C172.559 378.619 174.586 378.064 176.89 378.064C177.956 378.064 178.98 378.171 179.962 378.384L175.93 405.712ZM161.722 410.128C161.722 411.664 162.447 412.432 163.898 412.432C164.495 412.432 165.114 412.048 165.754 411.28C166.436 410.469 166.906 409.211 167.162 407.504L167.738 403.536C163.727 405.797 161.722 407.995 161.722 410.128ZM230.844 387.856C229.094 401.68 228.22 409.04 228.22 409.936C228.22 411.643 228.838 412.496 230.076 412.496C231.185 412.496 232.38 411.749 233.66 410.256C234.982 408.72 236.028 406.437 236.796 403.408C238.204 404.944 239.057 406.139 239.356 406.992C238.374 411.131 236.817 414.053 234.684 415.76C232.55 417.467 230.353 418.32 228.092 418.32C224.38 418.32 221.884 416.891 220.604 414.032C218.385 416.891 215.42 418.32 211.708 418.32C208.636 418.32 206.268 417.552 204.604 416.016C202.94 414.48 202.108 412.475 202.108 410C202.108 409.403 202.214 408.357 202.428 406.864C203.409 398.928 204.156 392.613 204.668 387.92C205.99 387.451 207.206 387.216 208.316 387.216C209.425 387.216 210.257 387.259 210.812 387.344C211.366 387.429 211.9 387.749 212.412 388.304C212.924 388.859 213.18 389.648 213.18 390.672L211.068 406.992C210.982 407.504 210.94 407.973 210.94 408.4C210.94 410.917 212.092 412.176 214.396 412.176C216.529 412.176 218.3 411.131 219.708 409.04C219.708 408.571 219.75 407.824 219.836 406.8L221.948 389.776C222.246 389.051 222.886 388.453 223.868 387.984C224.849 387.472 226.065 387.216 227.516 387.216C229.009 387.216 230.118 387.429 230.844 387.856ZM259.185 371.856C259.484 371.131 260.145 370.533 261.169 370.064C262.236 369.552 263.494 369.296 264.945 369.296C266.438 369.296 267.548 369.509 268.273 369.936C267.846 373.264 267.164 378.491 266.225 385.616C264.262 400.507 263.281 408.72 263.281 410.256C263.281 411.749 263.921 412.496 265.201 412.496C266.31 412.496 267.462 411.813 268.657 410.448C269.852 409.04 270.94 406.757 271.921 403.6C273.116 404.752 273.948 406.011 274.417 407.376C272.881 412.453 270.47 415.739 267.185 417.232C265.692 417.957 264.284 418.32 262.961 418.32C259.164 418.32 256.625 416.955 255.345 414.224C253.126 416.997 250.289 418.384 246.833 418.384C243.377 418.384 240.454 417.211 238.065 414.864C235.718 412.517 234.545 409.424 234.545 405.584C234.545 399.995 236.188 395.536 239.473 392.208C242.758 388.88 246.918 387.216 251.953 387.216C252.081 387.216 252.209 387.216 252.337 387.216C254.086 387.216 255.729 387.472 257.265 387.984L259.185 371.856ZM252.913 392.208C250.182 392.208 248.006 393.253 246.385 395.344C244.806 397.392 243.868 400.464 243.569 404.56C243.526 404.944 243.505 405.307 243.505 405.648C243.505 407.739 243.996 409.403 244.977 410.64C246.001 411.877 247.302 412.496 248.881 412.496C251.569 412.496 253.596 410.597 254.961 406.8L256.625 393.04C255.217 392.485 253.98 392.208 252.913 392.208ZM287.016 387.216C289.362 387.216 291.517 387.6 293.48 388.368C294.802 387.557 296.189 387.152 297.64 387.152C299.09 387.152 300.242 387.344 301.096 387.728L298.792 405.776C301.949 403.344 304.338 401.125 305.96 399.12L307.816 403.024C305.384 405.584 302.141 408.315 298.088 411.216L296.36 424.592C295.89 428.603 294.568 431.675 292.392 433.808C290.258 435.984 287.485 437.072 284.072 437.072C282.109 437.072 280.189 436.432 278.312 435.152C276.349 433.787 275.368 431.589 275.368 428.56C275.368 424.848 277.138 421.456 280.68 418.384C277.65 418.171 275.047 416.912 272.872 414.608C270.696 412.304 269.608 409.296 269.608 405.584C269.608 399.995 271.25 395.536 274.536 392.208C277.821 388.88 281.981 387.216 287.016 387.216ZM287.976 392.208C285.245 392.208 283.069 393.253 281.448 395.344C279.869 397.392 278.93 400.464 278.632 404.56C278.589 404.944 278.568 405.307 278.568 405.648C278.568 407.739 279.058 409.403 280.04 410.64C281.064 411.877 282.365 412.496 283.944 412.496C286.632 412.496 288.658 410.619 290.024 406.864L291.624 392.976C290.301 392.464 289.085 392.208 287.976 392.208ZM280.296 427.6C280.296 428.752 280.616 429.648 281.256 430.288C281.938 430.971 282.706 431.312 283.56 431.312C285.949 431.312 287.336 429.797 287.72 426.768L288.808 417.168C283.133 420.539 280.296 424.016 280.296 427.6ZM315.766 403.664C318.411 403.109 320.374 402.043 321.654 400.464C322.977 398.885 323.638 397.371 323.638 395.92C323.638 394.427 323.233 393.424 322.422 392.912C321.654 392.357 320.801 392.08 319.862 392.08C317.857 392.08 316.086 393.211 314.55 395.472C313.057 397.691 312.31 400.357 312.31 403.472C312.31 406.544 313.035 408.848 314.486 410.384C315.979 411.877 317.814 412.624 319.99 412.624C323.19 412.624 326.262 411.515 329.206 409.296C332.15 407.077 334.539 404.176 336.374 400.592C337.313 401.488 338.166 402.597 338.934 403.92C337.526 407.12 335.03 410.256 331.446 413.328C329.654 414.821 327.521 416.037 325.046 416.976C322.614 417.915 320.097 418.384 317.494 418.384C313.227 418.384 309.857 417.083 307.382 414.48C304.737 411.664 303.414 408.059 303.414 403.664C303.414 399.269 305.057 395.429 308.342 392.144C311.67 388.859 315.638 387.216 320.246 387.216C323.531 387.216 326.198 387.941 328.246 389.392C330.294 390.8 331.339 392.72 331.382 395.152C331.382 398.437 330.059 401.104 327.414 403.152C324.811 405.2 321.227 406.629 316.662 407.44L315.766 403.664ZM348.139 373.456C348.139 373.712 347.563 378.299 346.411 387.216H355.819V392.144H345.771L345.579 393.744C350.571 397.925 353.067 402.491 353.067 407.44C353.067 411.323 352.064 414.117 350.059 415.824C348.096 417.531 345.728 418.384 342.955 418.384C340.181 418.384 338.155 417.659 336.875 416.208C335.595 414.715 334.955 412.923 334.955 410.832C334.955 410.363 334.997 409.851 335.083 409.296L337.067 392.272L336.811 392.144H331.627C331.584 391.717 331.562 391.035 331.562 390.096C331.562 389.115 331.755 388.155 332.139 387.216H337.643L339.691 369.808C340.587 369.467 341.781 369.296 343.275 369.296C346.517 369.296 348.139 370.683 348.139 373.456ZM348.779 407.376C348.779 404.432 347.499 401.531 344.939 398.672C344.171 405.029 343.787 408.699 343.787 409.68C343.787 411.6 344.405 412.56 345.643 412.56C346.539 412.56 347.285 412.155 347.883 411.344C348.48 410.491 348.779 409.168 348.779 407.376Z" fill="black"/>
</svg>
